<svg xmlns="http://www.w3.org/2000/svg" xmlns:xlink="http://www.w3.org/1999/xlink" width="534.2005158105469" height="1022" viewBox="0 0 534.2005158105469 1022" fill="none"><path id="交集" fill-rule="evenodd" style="fill:#F7B500" opacity="0.5" d="M220.4,0zM220.4,0c-24.46,34.49 -64.7,57 -110.2,57c-45.5,0 -85.74,-22.51 -110.2,-57zM432.31,0zM343.2,127c0,-58.45 37.14,-108.22 89.11,-127h91.78c3.44,1.24 6.81,2.62 10.11,4.13v245.74c-17.06,7.79 -36.02,12.13 -56,12.13c-74.56,0 -135,-60.44 -135,-135zM534.2,616.47v255.06c-42.62,-26.45 -71,-73.68 -71,-127.53c0,-53.85 28.38,-101.08 71,-127.53zM498.17,1022h-373.94c16.03,-88.71 93.65,-156 186.97,-156c93.33,0 170.94,67.29 186.97,156z"></path></svg>