<svg xmlns="http://www.w3.org/2000/svg" xmlns:xlink="http://www.w3.org/1999/xlink" width="648.935546875" height="1022" viewBox="0 0 648.935546875 1022" fill="none"><path id="交集" fill-rule="evenodd" style="fill:#F7B500" opacity="0.5" d="M387.98,0c-17.05,55.03 -68.35,95 -128.98,95c-60.63,0 -111.93,-39.97 -128.98,-95zM0,439.77v-269.54c2.65,-0.15 5.31,-0.23 8,-0.23c74.56,0 135,60.44 135,135c0,74.56 -60.44,135 -135,135c-2.69,0 -5.35,-0.08 -8,-0.23zM0,857.35v-258.7c44.28,26.08 74,74.25 74,129.35c0,55.11 -29.72,103.27 -74,129.35zM648.94,1022h-309.88c34.44,-48.42 91,-80 154.94,-80c63.94,0 120.5,31.58 154.94,80z"></path></svg>