<svg xmlns="http://www.w3.org/2000/svg" xmlns:xlink="http://www.w3.org/1999/xlink" width="518" height="1024" viewBox="0 0 518 1024" fill="none"><path id="交集" fill-rule="evenodd" style="fill:#F7B500" opacity="1" d="M0,671.96v-345.92c75.08,21.66 130,90.9 130,172.96c0,82.06 -54.92,151.3 -130,172.96zM517.95,1024h-517.95v-329.56c47.7,-23.34 101.32,-36.44 158,-36.44c198.82,0 360,161.18 360,360c0,2 -0.02,4 -0.05,6zM292.7,0zM292.7,0c8.62,24.74 13.3,51.32 13.3,79c0,132.55 -107.45,240 -240,240c-22.89,0 -45.03,-3.2 -66,-9.19v-309.81z"></path></svg>