<svg xmlns="http://www.w3.org/2000/svg" xmlns:xlink="http://www.w3.org/1999/xlink" width="468.14324951171886" height="1024" viewBox="0 0 468.14324951171886 1024" fill="none"><path id="交集" fill-rule="evenodd" style="fill:#F7B500" opacity="1" d="M468.14 1024L468.14 96.42C452.06 104.54 436.66 113.84 422.07 124.19C442.82 99.46 458.67 70.5 468.14 38.78L468.14 0L0 0C14.76 118.39 115.75 210 238.14 210C285.39 210 329.44 196.35 366.58 172.78C306.74 237.06 270.14 323.26 270.14 418C270.14 556.45 348.3 676.64 462.89 736.87C443.63 729.84 422.84 726 401.14 726C301.73 726 221.14 806.59 221.14 906C221.14 951.14 237.76 992.4 265.21 1024L468.14 1024Z"></path></svg>